<mxfile host="Electron" agent="Mozilla/5.0 (Windows NT 10.0; Win64; x64) AppleWebKit/537.36 (KHTML, like Gecko) draw.io/24.7.17 Chrome/128.0.6613.36 Electron/32.0.1 Safari/537.36" version="24.7.17">
  <diagram name="Trang-1" id="BTaYg3Wt4QtJH-aJ2amT">
    <mxGraphModel dx="1434" dy="844" grid="1" gridSize="10" guides="1" tooltips="1" connect="1" arrows="1" fold="1" page="1" pageScale="1" pageWidth="850" pageHeight="1100" math="0" shadow="0">
      <root>
        <mxCell id="0" />
        <mxCell id="1" parent="0" />
        <mxCell id="lAMSOm1CJkhueYf5Zs56-22" style="edgeStyle=orthogonalEdgeStyle;rounded=0;orthogonalLoop=1;jettySize=auto;html=1;exitX=0.5;exitY=1;exitDx=0;exitDy=0;entryX=0.5;entryY=0;entryDx=0;entryDy=0;" edge="1" parent="1" source="lAMSOm1CJkhueYf5Zs56-1" target="lAMSOm1CJkhueYf5Zs56-21">
          <mxGeometry relative="1" as="geometry" />
        </mxCell>
        <mxCell id="lAMSOm1CJkhueYf5Zs56-1" value="Bắt đầu" style="rounded=1;whiteSpace=wrap;html=1;" vertex="1" parent="1">
          <mxGeometry x="360" y="120" width="120" height="60" as="geometry" />
        </mxCell>
        <mxCell id="lAMSOm1CJkhueYf5Zs56-13" style="edgeStyle=orthogonalEdgeStyle;rounded=0;orthogonalLoop=1;jettySize=auto;html=1;exitX=0.5;exitY=1;exitDx=0;exitDy=0;entryX=0.5;entryY=0;entryDx=0;entryDy=0;" edge="1" parent="1" source="lAMSOm1CJkhueYf5Zs56-2" target="lAMSOm1CJkhueYf5Zs56-12">
          <mxGeometry relative="1" as="geometry" />
        </mxCell>
        <mxCell id="lAMSOm1CJkhueYf5Zs56-29" value="" style="edgeStyle=orthogonalEdgeStyle;rounded=0;orthogonalLoop=1;jettySize=auto;html=1;" edge="1" parent="1" source="lAMSOm1CJkhueYf5Zs56-2" target="lAMSOm1CJkhueYf5Zs56-28">
          <mxGeometry relative="1" as="geometry" />
        </mxCell>
        <mxCell id="lAMSOm1CJkhueYf5Zs56-2" value="Nếu i nhỏ hơn&amp;nbsp;&lt;span style=&quot;background-color: initial;&quot;&gt;số cạnh trong đồ thị&lt;/span&gt;" style="rhombus;whiteSpace=wrap;html=1;" vertex="1" parent="1">
          <mxGeometry x="360" y="300" width="120" height="120" as="geometry" />
        </mxCell>
        <mxCell id="lAMSOm1CJkhueYf5Zs56-9" value="" style="edgeStyle=orthogonalEdgeStyle;rounded=0;orthogonalLoop=1;jettySize=auto;html=1;" edge="1" parent="1" source="lAMSOm1CJkhueYf5Zs56-6" target="lAMSOm1CJkhueYf5Zs56-8">
          <mxGeometry relative="1" as="geometry" />
        </mxCell>
        <mxCell id="lAMSOm1CJkhueYf5Zs56-6" value="Kiểm tra có cầu" style="shape=process;whiteSpace=wrap;html=1;backgroundOutline=1;" vertex="1" parent="1">
          <mxGeometry x="360" y="550" width="120" height="60" as="geometry" />
        </mxCell>
        <mxCell id="lAMSOm1CJkhueYf5Zs56-11" value="" style="edgeStyle=orthogonalEdgeStyle;rounded=0;orthogonalLoop=1;jettySize=auto;html=1;" edge="1" parent="1" source="lAMSOm1CJkhueYf5Zs56-8" target="lAMSOm1CJkhueYf5Zs56-10">
          <mxGeometry relative="1" as="geometry" />
        </mxCell>
        <mxCell id="lAMSOm1CJkhueYf5Zs56-8" value="Nếu trả về false" style="rhombus;whiteSpace=wrap;html=1;" vertex="1" parent="1">
          <mxGeometry x="380" y="640" width="80" height="80" as="geometry" />
        </mxCell>
        <mxCell id="lAMSOm1CJkhueYf5Zs56-16" value="" style="edgeStyle=orthogonalEdgeStyle;rounded=0;orthogonalLoop=1;jettySize=auto;html=1;" edge="1" parent="1" source="lAMSOm1CJkhueYf5Zs56-10" target="lAMSOm1CJkhueYf5Zs56-15">
          <mxGeometry relative="1" as="geometry" />
        </mxCell>
        <mxCell id="lAMSOm1CJkhueYf5Zs56-10" value="Xoá cạnh đó khỏi đồ thị" style="rounded=0;whiteSpace=wrap;html=1;" vertex="1" parent="1">
          <mxGeometry x="360" y="750" width="120" height="60" as="geometry" />
        </mxCell>
        <mxCell id="lAMSOm1CJkhueYf5Zs56-14" value="" style="edgeStyle=orthogonalEdgeStyle;rounded=0;orthogonalLoop=1;jettySize=auto;html=1;" edge="1" parent="1" source="lAMSOm1CJkhueYf5Zs56-12" target="lAMSOm1CJkhueYf5Zs56-6">
          <mxGeometry relative="1" as="geometry" />
        </mxCell>
        <mxCell id="lAMSOm1CJkhueYf5Zs56-12" value="Cho 2 đỉnh hiện tại và đỉnh kề nó" style="rounded=0;whiteSpace=wrap;html=1;" vertex="1" parent="1">
          <mxGeometry x="360" y="450" width="120" height="60" as="geometry" />
        </mxCell>
        <mxCell id="lAMSOm1CJkhueYf5Zs56-25" style="edgeStyle=orthogonalEdgeStyle;rounded=0;orthogonalLoop=1;jettySize=auto;html=1;exitX=0.5;exitY=1;exitDx=0;exitDy=0;entryX=0.5;entryY=0;entryDx=0;entryDy=0;" edge="1" parent="1" source="lAMSOm1CJkhueYf5Zs56-15" target="lAMSOm1CJkhueYf5Zs56-24">
          <mxGeometry relative="1" as="geometry" />
        </mxCell>
        <mxCell id="lAMSOm1CJkhueYf5Zs56-15" value="Thêm cạnh đó vào chu trình" style="rounded=0;whiteSpace=wrap;html=1;" vertex="1" parent="1">
          <mxGeometry x="360" y="840" width="120" height="60" as="geometry" />
        </mxCell>
        <mxCell id="lAMSOm1CJkhueYf5Zs56-23" style="edgeStyle=orthogonalEdgeStyle;rounded=0;orthogonalLoop=1;jettySize=auto;html=1;exitX=0.5;exitY=1;exitDx=0;exitDy=0;entryX=0.5;entryY=0;entryDx=0;entryDy=0;" edge="1" parent="1" source="lAMSOm1CJkhueYf5Zs56-21" target="lAMSOm1CJkhueYf5Zs56-2">
          <mxGeometry relative="1" as="geometry" />
        </mxCell>
        <mxCell id="lAMSOm1CJkhueYf5Zs56-21" value="Đỉnh đầu vào" style="shape=parallelogram;perimeter=parallelogramPerimeter;whiteSpace=wrap;html=1;fixedSize=1;" vertex="1" parent="1">
          <mxGeometry x="360" y="210" width="120" height="60" as="geometry" />
        </mxCell>
        <mxCell id="lAMSOm1CJkhueYf5Zs56-26" style="edgeStyle=orthogonalEdgeStyle;rounded=0;orthogonalLoop=1;jettySize=auto;html=1;exitX=0;exitY=0.5;exitDx=0;exitDy=0;entryX=0;entryY=0.5;entryDx=0;entryDy=0;" edge="1" parent="1" source="lAMSOm1CJkhueYf5Zs56-24" target="lAMSOm1CJkhueYf5Zs56-21">
          <mxGeometry relative="1" as="geometry">
            <Array as="points">
              <mxPoint x="290" y="960" />
              <mxPoint x="290" y="240" />
            </Array>
          </mxGeometry>
        </mxCell>
        <mxCell id="lAMSOm1CJkhueYf5Zs56-24" value="Gọi lại hàm này với đầu vào là đỉnh kề nó" style="rounded=0;whiteSpace=wrap;html=1;" vertex="1" parent="1">
          <mxGeometry x="360" y="930" width="120" height="60" as="geometry" />
        </mxCell>
        <mxCell id="lAMSOm1CJkhueYf5Zs56-27" value="Đúng" style="text;html=1;align=center;verticalAlign=middle;resizable=0;points=[];autosize=1;strokeColor=none;fillColor=none;" vertex="1" parent="1">
          <mxGeometry x="419" y="418" width="50" height="30" as="geometry" />
        </mxCell>
        <mxCell id="lAMSOm1CJkhueYf5Zs56-44" style="edgeStyle=orthogonalEdgeStyle;rounded=0;orthogonalLoop=1;jettySize=auto;html=1;exitX=0.5;exitY=1;exitDx=0;exitDy=0;entryX=0.5;entryY=0;entryDx=0;entryDy=0;" edge="1" parent="1" source="lAMSOm1CJkhueYf5Zs56-28" target="lAMSOm1CJkhueYf5Zs56-39">
          <mxGeometry relative="1" as="geometry" />
        </mxCell>
        <mxCell id="lAMSOm1CJkhueYf5Zs56-48" style="edgeStyle=orthogonalEdgeStyle;rounded=0;orthogonalLoop=1;jettySize=auto;html=1;exitX=1;exitY=0.5;exitDx=0;exitDy=0;entryX=0;entryY=0.5;entryDx=0;entryDy=0;" edge="1" parent="1" source="lAMSOm1CJkhueYf5Zs56-28" target="lAMSOm1CJkhueYf5Zs56-46">
          <mxGeometry relative="1" as="geometry" />
        </mxCell>
        <mxCell id="lAMSOm1CJkhueYf5Zs56-28" value="Nếu i nhỏ hơn&amp;nbsp;&lt;span style=&quot;background-color: initial;&quot;&gt;số cạnh trong đồ thị&lt;/span&gt;" style="rhombus;whiteSpace=wrap;html=1;" vertex="1" parent="1">
          <mxGeometry x="530" y="300" width="120" height="120" as="geometry" />
        </mxCell>
        <mxCell id="lAMSOm1CJkhueYf5Zs56-30" value="Sai" style="text;html=1;align=center;verticalAlign=middle;resizable=0;points=[];autosize=1;strokeColor=none;fillColor=none;" vertex="1" parent="1">
          <mxGeometry x="482" y="330" width="40" height="30" as="geometry" />
        </mxCell>
        <mxCell id="lAMSOm1CJkhueYf5Zs56-36" value="" style="edgeStyle=orthogonalEdgeStyle;rounded=0;orthogonalLoop=1;jettySize=auto;html=1;" edge="1" parent="1" source="lAMSOm1CJkhueYf5Zs56-37" target="lAMSOm1CJkhueYf5Zs56-41">
          <mxGeometry relative="1" as="geometry" />
        </mxCell>
        <mxCell id="lAMSOm1CJkhueYf5Zs56-37" value="Xoá cạnh đó khỏi đồ thị" style="rounded=0;whiteSpace=wrap;html=1;" vertex="1" parent="1">
          <mxGeometry x="530" y="550" width="120" height="60" as="geometry" />
        </mxCell>
        <mxCell id="lAMSOm1CJkhueYf5Zs56-45" style="edgeStyle=orthogonalEdgeStyle;rounded=0;orthogonalLoop=1;jettySize=auto;html=1;exitX=0.5;exitY=1;exitDx=0;exitDy=0;entryX=0.5;entryY=0;entryDx=0;entryDy=0;" edge="1" parent="1" source="lAMSOm1CJkhueYf5Zs56-39" target="lAMSOm1CJkhueYf5Zs56-37">
          <mxGeometry relative="1" as="geometry" />
        </mxCell>
        <mxCell id="lAMSOm1CJkhueYf5Zs56-39" value="Cho 2 đỉnh hiện tại và đỉnh kề nó" style="rounded=0;whiteSpace=wrap;html=1;" vertex="1" parent="1">
          <mxGeometry x="530" y="450" width="120" height="60" as="geometry" />
        </mxCell>
        <mxCell id="lAMSOm1CJkhueYf5Zs56-40" style="edgeStyle=orthogonalEdgeStyle;rounded=0;orthogonalLoop=1;jettySize=auto;html=1;exitX=0.5;exitY=1;exitDx=0;exitDy=0;entryX=0.5;entryY=0;entryDx=0;entryDy=0;" edge="1" parent="1" source="lAMSOm1CJkhueYf5Zs56-41" target="lAMSOm1CJkhueYf5Zs56-42">
          <mxGeometry relative="1" as="geometry" />
        </mxCell>
        <mxCell id="lAMSOm1CJkhueYf5Zs56-41" value="Thêm cạnh đó vào chu trình" style="rounded=0;whiteSpace=wrap;html=1;" vertex="1" parent="1">
          <mxGeometry x="530" y="640" width="120" height="60" as="geometry" />
        </mxCell>
        <mxCell id="lAMSOm1CJkhueYf5Zs56-50" style="edgeStyle=orthogonalEdgeStyle;rounded=0;orthogonalLoop=1;jettySize=auto;html=1;exitX=0.5;exitY=1;exitDx=0;exitDy=0;entryX=0;entryY=0.25;entryDx=0;entryDy=0;" edge="1" parent="1" source="lAMSOm1CJkhueYf5Zs56-42" target="lAMSOm1CJkhueYf5Zs56-21">
          <mxGeometry relative="1" as="geometry">
            <Array as="points">
              <mxPoint x="590" y="1010" />
              <mxPoint x="230" y="1010" />
              <mxPoint x="230" y="229" />
            </Array>
          </mxGeometry>
        </mxCell>
        <mxCell id="lAMSOm1CJkhueYf5Zs56-42" value="Gọi lại hàm này với đầu vào là đỉnh kề nó" style="rounded=0;whiteSpace=wrap;html=1;" vertex="1" parent="1">
          <mxGeometry x="530" y="730" width="120" height="60" as="geometry" />
        </mxCell>
        <mxCell id="lAMSOm1CJkhueYf5Zs56-43" value="Đúng" style="text;html=1;align=center;verticalAlign=middle;resizable=0;points=[];autosize=1;strokeColor=none;fillColor=none;" vertex="1" parent="1">
          <mxGeometry x="590" y="419" width="50" height="30" as="geometry" />
        </mxCell>
        <mxCell id="lAMSOm1CJkhueYf5Zs56-46" value="Kết thúc" style="rounded=1;whiteSpace=wrap;html=1;" vertex="1" parent="1">
          <mxGeometry x="710" y="330" width="120" height="60" as="geometry" />
        </mxCell>
        <mxCell id="lAMSOm1CJkhueYf5Zs56-49" value="Sai" style="text;html=1;align=center;verticalAlign=middle;resizable=0;points=[];autosize=1;strokeColor=none;fillColor=none;" vertex="1" parent="1">
          <mxGeometry x="650" y="330" width="40" height="30" as="geometry" />
        </mxCell>
      </root>
    </mxGraphModel>
  </diagram>
</mxfile>
